<?xml version="1.0" encoding="UTF-8"?>
<svg version="1.1" viewBox="0 0 1800 1800" width="1800" height="1800" xmlns="http://www.w3.org/2000/svg">
<path transform="translate(0)" d="m0 0h1800v1800h-1800z" fill="#FDFDFD"/>
<path transform="translate(0,1548)" d="m0 0h1800v252h-1800z" fill="#FEFEFE"/>
<path transform="translate(0)" d="m0 0h1800v245h-1800z" fill="#FEFEFE"/>
<path transform="translate(16,1372)" d="m0 0h1768l1 1v158l-1 1h-1768l-1-1v-158z" fill="#056838"/>
<path transform="translate(1049,270)" d="m0 0 4 1-17 13-38 28-20 15-19 14-16 12-19 14-16 12-19 14-20 15-38 28-20 15-19 14-16 12-38 28-21 16-14 10-20 15-19 14-20 15-38 28-21 16-14 10-21 16-14 10-21 16-14 10-20 15-38 28-21 16-14 10-9 7h-331l5-5 17-12 180-130 14-10 90-65 9-6h2l1 58 25 1v-179l13-11 14-11 16-13 7-5h78l1 151h27l1-113 36-28 26-20 7-5 48-10 266-54z" fill="#056838"/>
<path transform="translate(1102,262)" d="m0 0 4 1 16 12 15 12 13 10 144 112 14 11 162 126 14 11 13 10 14 11 126 98 14 11 72 56 17 13v1h-176l-1-1-1-58-54-39-14-10-18-13-17-12-36-26-14-10-36-26-17-12-36-26-17-12-54-39-17-12-36-26-14-10-18-13-14-10-18-13-17-12-18-13-10-7-7 4-19 14-18 13-19 14-18 13-19 14-18 13-19 14-18 13-19 14-18 13-19 14-18 13-19 14-36 26-38 28-18 13-19 14-36 26-19 14-18 13-19 14-18 13-2 11-6 47-1 1h-176l5-5 14-10 76-56 16-12 114-84 16-12 133-98 20-15 114-84 16-12 133-98z" fill="#056838"/>
<path transform="translate(50,1059)" d="m0 0h165l22 2 17 4 16 7 11 8 8 8 6 10 4 14v19l-3 11-5 10-10 11-11 7-13 6-13 4-17 3-11 1-3 1 24 7 16 8 10 9 8 10 10 19 13 33 12 25 8 10 11 7 9 4v5h-95l-8-24-13-42-10-25-9-17-9-11-10-8-9-4-4-1h-28v68l2 26 3 13 4 8 4 5 7 4 8 2v6h-124l-1-1v-5l12-4 7-8 5-11 3-14 2-28v-144l-2-18-4-11-4-6-6-4-6-3v-5z" fill="#221F20"/>
<path transform="translate(53,789)" d="m0 0h98l1 5-11 6-5 6-3 12-1 76 94-1v-66l-2-16-5-10-8-5-2-1v-6h96l1 5-10 6-4 5-2 5-1 6v173l2 12 4 9 5 5 8 3 3 1v6h-109l-1-5 12-5 6-7 4-11 2-14 1-19v-55l-94-1 1 73 3 20 4 9 5 5 8 3 3 1v6h-112v-6l11-4 6-7 5-11 3-13 2-25v-125l-1-18-3-12-7-6-8-4z" fill="#221F20"/>
<path transform="translate(554,837)" d="m0 0h130l16 3 14 6 9 7 7 9 4 11v17l-4 11-7 9-10 7-12 5-13 3-15 2 20 6 10 6 9 9 8 14 11 28 8 16 6 8 10 6 4 2v3h-68l-3-7-12-39-8-20-6-11-8-10-10-6-9-2h-15l-1 1v49l2 20 4 13 7 6 7 2v4h-90v-4l10-4 6-9 3-11 1-7 1-18v-99l-1-13-3-10-5-5-7-4z" fill="#221F20"/>
<path transform="translate(412,1112)" d="m0 0h176l3 9 11 44v4h-6l-12-13-9-9-14-10-17-8-16-4-9-1h-35l-1 81 35-1 14-3 12-5 9-7 6-8 5-10 5-1v82l-4-1-7-13-7-7-10-6-16-5-14-2-28-1 1 62 4 16 6 8 9 4 14 2 15-1 15-4 16-7 15-10 11-9 12-11 7-8 9-11 5 1-2 9-19 61-2 3h-194v-5l10-3 6-5 5-11 2-12 1-15v-124l-2-15-4-8-5-4-6-3z" fill="#221F20"/>
<path transform="translate(1440,831)" d="m0 0h25l19 2 23 5 17 6 12 6 1 3-16 53-1 2-4-1-6-24-7-16-9-12-7-6-12-6-8-2h-17l-10 3-10 6-8 8-8 14-6 15-4 18-1 7-1 23 1 19 3 19 6 18 6 12 10 11 14 7 5 1h15l9-3 9-8 4-8 2-8v-37l-2-9-4-6-6-4-14-4-1-5h95l-1 5-8 3-4 5-3 9-1 6v42l2 8-8 5-17 8-24 8-17 3-10 1h-22l-19-3-18-6-14-8-10-8-13-13-9-14-6-15-3-12-2-23 2-21 4-16 8-17 10-13 9-9 14-10 17-8 15-4z" fill="#221F20"/>
<path transform="translate(798,1106)" d="m0 0 5 2 19 39 67 134 10 17 9 11 8 5 4 2v5l-1 1h-99l-1-5 10-4 4-5 1-3v-8l-4-14-9-20-12-24h-64l-13 29-5 16v15l4 8 9 6 10 4-1 5h-74l1-5 10-6 12-12 10-14 8-14 18-36 11-23 13-26 11-23 23-47 5-9z" fill="#221F20"/>
<path transform="translate(1260,1112)" d="m0 0h191l3 6 13 48v5h-7l-10-13-16-16-14-10-11-5-4-1h-11l-6 3-3 6-1 4v139l3 21 5 12 5 4 10 3v4h-104l-1-4 9-3 6-4 5-8 4-13 2-15v-136l-3-9-6-4h-12l-13 5-13 9-13 12-7 7-9 12h-7l4-17z" fill="#221F20"/>
<path transform="translate(341,837)" d="m0 0h159l12 47-1 4-5-1-15-16-13-10-16-8-13-4-6-1-38-1 1 73h23l15-2 12-4 11-7 6-8 5-10 5 1v72l-5-1-5-10-5-6-10-6-10-4-17-3-26-1 1 56 3 13 4 7 10 5 4 1h22l15-4 16-8 13-9 13-11 8-8 9-11 2-3 5 1-3 12-16 51-1 2h-175v-4l11-4 4-5 4-10 2-18v-119l-2-12-4-7-9-5z" fill="#221F20"/>
<path transform="translate(1522,1112)" d="m0 0h103v4l-12 5-4 5v11l8 16 14 20 16 23 8 12 3-1 12-20 12-19 9-17 3-9 1-8-2-7-5-5-13-5 1-5h80v6l-17 9-10 8-10 9-11 13-29 44-16 24v54l3 17 5 12 5 5 10 5-1 4h-99v-5l11-4 5-6 4-12 2-21v-43l-14-22-16-25-18-27-10-14-11-13-9-8-9-5z" fill="#221F20"/>
<path transform="translate(1585,837)" d="m0 0h159l12 47-1 4-5-1-14-15-11-9-14-8-14-5-10-2-38-1 1 73h23l15-2 12-4 10-6 6-7 6-11 4-1 1 1v72l-5-1-6-12-8-7-13-6-12-3-8-1h-25v54l3 14 4 6 5 4 9 3h22l15-4 16-8 12-8 13-11 10-10 10-13 5 1-2 9-17 55-1 1h-175v-4l10-3 6-7 3-9 2-15v-124l-3-13-5-5-7-4z" fill="#221F20"/>
<path transform="translate(980,1112)" d="m0 0h92v5l-10 5-5 6-3 9-1 6v135l3 15 5 10 5 4 8 3h20l15-4 16-8 14-10 10-9 8-7 10-11 11-14 5 1 1 3-20 70-1 1h-190l-1-4 10-4 6-7 5-11 4-20v-137l-3-11-6-7-8-4z" fill="#221F20"/>
<path transform="translate(1223,831)" d="m0 0 5 5 8 17 69 138 10 16 6 7 10 6 1 4-1 1h-90v-4l9-4 3-3 1-3v-10l-6-17-14-29-2-4-58-1-2 6-9 20-5 16v12l4 8 5 4 11 5 1 4h-68l1-4 10-6 8-8 10-13 9-16 15-30 11-23 25-51 19-39z" fill="#221F20"/>
<path transform="translate(909,837)" d="m0 0h172l3 8 11 41v4h-6l-8-10-9-10-9-8-14-9-11-4h-8l-6 3-3 6-1 4v120l2 18 4 13 4 5 11 4v3h-94v-4l10-3 6-7 4-11 2-10 1-11v-116l-2-9-4-4-4-1h-8l-11 4-11 7-15 13-9 10-5 7h-5l-1-2 13-50z" fill="#221F20"/>
<path transform="translate(1120,683)" d="m0 0h134l1 1v76l-1 1h-134l-1-1v-76z" fill="#056838"/>
<path transform="translate(937,683)" d="m0 0h133l1 1v76l-1 1h-134v-77z" fill="#056838"/>
<path transform="translate(1119,543)" d="m0 0h21l17 3 16 5 17 8 13 9 10 9 5 5 9 10 10 15 11 23 3 9v3h-132z" fill="#056838"/>
<path transform="translate(1055,546)" d="m0 0h16v99h-132l3-11 8-18 10-16 8-10 9-10 9-8 15-10 17-8 17-5z" fill="#056838"/>
<path transform="translate(792,837)" d="m0 0h76l-1 5-8 4-3 4-2 13v109l1 23 3 14 4 6 4 3 7 3v4h-88v-5l10-3 6-7 3-9 2-19v-123l-3-10-4-4-7-4z" fill="#221F20"/>
<path transform="translate(139,1073)" d="m0 0h30l19 3 14 5 10 7 8 9 5 12 2 12v8l-3 14-6 11-8 8-14 8-14 4-14 2h-29l-1-1v-101z" fill="#FEFEFE"/>
<path transform="translate(126,1386)" d="m0 0h13l10 3 4 3v19l-2 5-4 1-5-15-5-4-10-2-8 3-4 5-1 2v13l5 10 8 10 11 12 17 17 4 3h2l4-13v-9l-2-3-7-2-1-5 2-1h12l9 1 3 3v8l-4 13-7 13v4l12 9 12 6 10 2 2 2-1 4-4 1h-14l-13-2-14-9-4-1-11 8-10 4-16 2-12-2-8-4-9-8-6-12-1-5v-9l4-13 6-9 10-9-2-6-3-10v-7l4-10 7-8 9-6z" fill="#F7F7F7"/>
<path transform="translate(1158,1385)" d="m0 0 5 4 5 10 3 13 8-5 8-2h11l10 3 8 6 7 8 3 7 1 5v8l-3 14-8 18-6 11-5 7 9-1 14-4h3l-1 6-5 10h-50l1-3 9-7 5-4 9-11 6-12 2-8v-14l-3-14-5-8-4-3-10-1-10 5-4 5-2 23-1 26 1 26h-24v-10l3-29 1-15v-26l-2-8-4-4-10-2 5-5 10-7 7-8z" fill="#FDFDFD"/>
<path transform="translate(814,1426)" d="m0 0h10l12 3 8 4 8 8 4 8 2 10v13l-3 12-5 9-7 6-12 4-13 1-12-2-8-4-7-6-6-10-3-12v-9l3-13 6-9 9-8 10-4z" fill="#F7F7F7"/>
<path transform="translate(1309,1426)" d="m0 0h9l13 3 11 7 6 8 4 12v18l-4 13-4 6-7 6-12 4-13 1-11-2-10-5-7-7-6-12-1-4v-18l4-11 6-8 8-6 9-4z" fill="#F7F7F7"/>
<path transform="translate(927,1427)" d="m0 0h16l8 4 6-1 7-3h15l9 4 8 9 3 8v9l-3 10-8 15-8 12 15-3 7-1-2 9-2 4h-39v-3l8-7 7-8 7-14 1-5v-15l-3-10-5-4-2-1-9 1-4 5 2 10-1 16-5 23-4 12h-22l2-5 7-10 6-13 1-4v-20l-4-9-3-3-5-2-6 1-6 4-2 3-2 18v27l3 10v3h-22l-1-1 1-24 1-13v-20l-9-2 1-3 12-5 10-6h2l1 4 8-5z" fill="#FBFBFB"/>
<path transform="translate(1422,1427)" d="m0 0h15l8 4 6-1 7-3h16l8 4 7 7 4 9v12l-4 11-9 16-5 7 11-1 10-2-1 7-3 6h-39l2-4 12-12 6-10 3-9v-19l-3-8-1-3-6-2h-6l-6 4 1 8v15l-5 25-4 14-1 1h-21v-3l9-13 5-11 2-8v-13l-3-11-4-5-9-2-6 3-5 6-2 21v21l3 12v3h-22v-18l2-26v-15l-10-1v-2l16-7 7-5 3 1 2 2 6-4z" fill="#FCFCFC"/>
<path transform="translate(619,847)" d="m0 0h26l16 4 10 6 7 8 4 11v15l-4 11-7 8-8 5-12 4-5 1h-27l-1-1v-71z" fill="#FEFEFE"/>
<path transform="translate(1561,1425)" d="m0 0h18l9 4 5 4 5 10-1 9-1 2 10-2-2 11-1 1-44 2h-9l5 16 6 9 8 5 9-1 6-4 6-10 4 1 3 3-1 6-6 7-10 5-13 1-13-4-9-6-7-8-4-10-1-4v-20l4-11 8-9 12-6z" fill="#F8F8F8"/>
<path transform="translate(380,1404)" d="m0 0h13l13 4 9 7 9 10 3 5v4l-16 6h-4l-4-15-5-8-6-3h-11l-7 4-6 8-4 12-1 5v17l4 16 5 10 8 7 7 2 11-1 8-5 6-7 5-10 3 1 5 8v5l-8 9-10 6-6 2-14 1-14-3-12-6-10-9-6-9-4-11v-23l4-13 7-12 8-7 10-5z" fill="#F9F9F9"/>
<path transform="translate(1666,1425)" d="m0 0h15l11 4 9 7 6 7-6 3-8 1-7-8-7-4h-12l-4 3v7l5 4 17 6 9 5 6 5 5 10v12l-4 8-8 6-11 3h-13l-12-3-9-6-8-8-1-4 10-8 3-4h2l7 14 7 6 5 2h10l5-4v-8l-5-4-12-5-16-7-8-7-3-6v-11l4-7 8-6z" fill="#FAFAFA"/>
<path transform="translate(594,1425)" d="m0 0h15l11 4 9 7 6 6v2l-10 3-4-1-9-9-5-2h-12l-4 3v6l5 5 17 6 9 5 7 6 4 8v13l-4 8-8 6-11 3h-12l-10-2-10-5-9-9-2-5 9-7 4-5h2l7 14 7 6 5 2h10l4-2 1-2v-8l-5-4-12-5-14-6-9-7-4-8v-10l6-9 6-4z" fill="#FAFAFA"/>
<path transform="translate(497,1427)" d="m0 0 2 1 1 5v22l-2 14v16l4 5h7l5-5 1-2 1-19v-17l-2-4-7-4v-2l16-5 6-5h2l2 8v16l-1 19v24l1 9h-20l-1-2 1-2-9 4h-13l-8-5-4-7v-12l4-27v-6l-4-4-5-3 1-2 15-5 6-4z" fill="#FDFDFD"/>
<path transform="translate(412,1110)" d="m0 0h176l3 5 13 52-1 3h-8l-14-15-7-7-13-9-16-8-14-4-7-1h-39v77h27l14-2 12-4 12-7 8-10 5-11h7l1 1v82l-1 1h-6l-7-14-7-7-16-8-11-3-6-1-32-1v51l2 17 4 10 5 5 9 4 5 1h19l16-4 12-5 11-6 14-10 12-11 13-13 8-10 4-2 4 2-1 9-17 54-4 12-2 1h-194l-2-2v-5l2-2 9-2 5-4 5-10 2-9 1-9v-140l-2-10-3-6-5-4-6-3-1-1v-5zm0 2v5l9 5 4 5 3 10 1 10v124l-2 22-3 10-5 8-6 4-8 2v5h194l3-6 20-64v-3l-5-1-12 14-12 13-11 9-14 10-16 8-15 5-15 2-15-1-11-4-5-4-4-8-3-13-1-62 28 1 14 2 16 5 11 7 8 9 5 10 4 1v-82l-5 1-7 13-7 8-12 7-14 4-6 1-35 1 1-81h35l14 2 16 5 15 8 13 10 15 15 4 5h6l-1-8-12-48-1-1z" fill="#DEDEDE"/>
<path transform="translate(51,788)" d="m0 0h102v8l-10 4-5 6-3 9-1 8-1 69h92l-1-72-3-13-5-7-9-5v-6l1-1h99v8l-10 5-4 5-2 8-1 9v156l1 15 3 11 5 8 6 3 7 2v8l-1 1h-110l-1-1v-8l7-2 7-4 5-7 3-11 2-17 1-68h-92l1 65 2 20 4 13 4 6 6 3 7 2v8l-1 1h-112l-1-1v-8l12-5 6-8 4-10 3-15 1-10v-148l-2-14-4-6-12-6zm2 1-1 5 11 6 4 4 3 12 1 18v125l-2 25-4 16-6 11-6 5-9 3v6h112v-6l-10-3-5-4-4-8-3-14-1-9-1-73 94 1v55l-2 28-3 12-5 8-5 4-10 4 1 5h109v-6l-10-3-5-4-4-8-2-7-1-8v-173l2-9 4-6 8-5 3-2-1-5h-96v6l9 5 5 8 2 8 1 11v66l-94 1 1-76 3-12 6-7 10-5-1-5z" fill="#DEDEDE"/>
<path transform="translate(745,1425)" d="m0 0 3 1-3 10-1 2-8-1-7-1h-13l-11 4-5 4-5 10-1 4v15l6 12 7 6 6 2h10l8-4 5-5 5-6 5 1 2 4-6 8-7 7-11 5-5 1h-10l-12-3-9-5-7-7-5-10-2-7v-13l4-11 7-8 3-4-20 5 1-7 3-6 1-1h47z" fill="#FCFCFC"/>
<path transform="translate(64,1066)" d="m0 0 9 2 10 9 6 12 3 13v159l-3 20-4 12-5 9-6 7-7 4-3-1 7-8 5-11 4-20 1-12v-161l-3-16-5-10-9-7z" fill="#FEFEFE"/>
<path transform="translate(48,1058)" d="m0 0h176l21 3 18 6 13 7 10 9 6 7 6 12 3 13v14l-3 13-7 13-10 10-13 8-15 6-16 4-14 2 3 2 17 6 11 6 10 9 8 10 11 21 13 33 11 23 8 10 11 7 9 4 1 1v5l-2 2h-95l-3-5-19-62-9-22-8-16-9-13-9-8-10-5-8-2-24-1 1 80 2 17 4 13 6 9 8 4 7 2 1 1v7l-2 1h-124l-2-1v-8l9-3 6-4 6-9 4-13 2-11 1-12v-165l-3-14-5-10-7-5-6-3zm2 1-1 1v5l11 6 4 5 4 9 2 9 1 13v144l-2 28-4 17-6 11-7 6-10 3v5l1 1h124v-6l-10-3-7-5-5-9-3-10-2-14-1-17v-68h28l11 4 11 8 7 8 8 13 8 17 9 25 17 55 1 2h95v-5l-16-8-7-6-7-11-11-23-13-33-9-17-8-10-7-7-14-8-21-7-8-2 3-1 18-2 17-4 13-5 13-7 11-10 7-11 3-9 1-5v-19l-4-14-7-11-9-9-11-7-14-6-17-4-22-2z" fill="#DEDEDE"/>
<path transform="translate(341,835)" d="m0 0h158l3 3 12 48-1 3h-7l-16-17-13-10-16-8-15-4-8-1h-31l-1 70 28-1 15-3 14-7 7-7 7-13h6l1 1v74l-1 1h-5l-7-13-4-5-12-7-13-4-6-1-30-1 1 48 2 14 3 8 7 6 11 3h15l14-3 12-5 11-6 11-8 14-12 10-11 8-10 6 2-1 9-18 57-2 2h-175l-2-2 1-5 9-3 5-5 4-9 2-12v-130l-2-9-5-6-8-5 1-5zm0 2 1 5 8 4 4 7 2 12v119l-2 18-4 10-4 5-11 4v4h175l9-27 11-36v-2l-5-1-8 10-11 12-10 9-16 11-16 8-15 4h-22l-11-4-5-5-4-11-1-6-1-56 26 1 17 3 12 5 9 6 7 10 3 6h4v-72l-5-1-6 12-6 7-12 7-15 4-10 1h-23l-1-73 38 1 17 4 16 8 11 8 10 9 10 11 5-1-2-11-10-39z" fill="#DEDEDE"/>
<path transform="translate(1585,835)" d="m0 0h159l3 7 11 44-1 3h-7l-15-16-11-9-16-9-13-4-13-2h-31l-1 70 28-1 15-3 10-4 10-9 5-8 3-6h6l1 1v74l-5 1-3-4-4-8-5-6-10-6-15-5-6-1-30-1 1 43 1 14 3 11 6 7 13 4h15l14-3 12-5 14-8 12-9 15-14 9-11 4-5 6 2-1 9-17 54-3 5h-175l-2-1v-5l3-2 9-3 4-5 4-11 1-7v-134l-4-11-6-4-5-3 1-5zm0 2 1 5 8 4 4 7 2 10v124l-2 15-3 9-6 7-10 3v4h175l3-8 17-54-1-4h-4l-8 10-9 10-7 7-13 10-13 8-14 6-12 3h-22l-11-4-6-7-3-9-1-7v-54h25l17 3 12 5 9 6 6 8 4 8h4v-72l-4-1-3 5-7 11-9 7-12 5-9 2-10 1h-23l-1-73 38 1 17 4 16 8 10 7 10 9 10 11 5 1 1-4-12-47z" fill="#DEDEDE"/>
<path transform="translate(1052,268)" d="m0 0 4 1-4 5-7 5-2-1 9-7-13 2-389 79-15 4-15 12-26 20-18 14-7 5-1 113-1 1h-27l-1-1v-151l-78 1-14 11-16 13-14 11-5 4-1 179h-25l-1-1v-58l-11 7-8 6-2-1 13-10 6-4 4 1v59h22v-176l3-5 16-13 10-8 16-13 5-4h81l1 2v150h25v-112l5-5 14-11 18-14 13-10 18-14 10-3 245-50 158-32z" fill="#DEDEDE"/>
<path transform="translate(1440,833)" d="m0 0h12l-2 2-21 6-15 6-16 10-12 11-8 10-9 17-4 14-2 17v12l2 16 5 16 6 12 10 13 11 10 13 8 12 6 18 6 11 3v2l-16-1-17-4-16-7-13-9-10-9-10-13-8-16-4-13-2-11v-30l3-15 5-14 7-13 8-10 11-11 10-7 16-8 13-4z" fill="#FEFEFE"/>
<path transform="translate(66,795)" d="m0 0 9 1 8 4 4 7 3 17v144l-3 19-4 12-6 10-7 6-7 3-3-1 8-7 6-12 4-15 2-17v-141l-2-15-4-8-8-6z" fill="#FEFEFE"/>
<path transform="translate(817,1435)" d="m0 0h9l8 4 4 8 2 9v16l-4 13-6 8-6 3h-8l-6-4-7-10-2-6v-20l4-11 7-8z" fill="#056838"/>
<path transform="translate(1312,1435)" d="m0 0h8l8 4 5 10 1 5v19l-3 10-6 9-6 4h-9l-8-7-5-8-2-7v-16l4-12 6-8z" fill="#056838"/>
<path transform="translate(1435,830)" d="m0 0h36l22 3 22 6 15 6 8 4 1 4-17 55-1 1h-6l-3-13-5-17-7-14-8-10-11-8-11-4-7-1h-9l-13 3-10 6-7 7-8 13-6 15-4 16-2 15v31l3 22 5 17 8 16 9 10 12 6 11 2 12-1 10-5 6-7 4-11 1-10v-21l-1-12-4-9-5-4-16-5-1-1v-6l1-1h95l1 1v7l-8 3-5 5-3 11-1 9v33l2 8v5l-15 8-23 9-19 5-14 2h-33l-20-4-15-6-12-7-10-8-8-7-10-13-8-16-5-16-2-14v-23l3-18 6-17 7-12 8-10 11-11 15-10 16-7 16-4zm5 1-19 3-15 5-15 8-13 10-9 9-9 13-7 15-4 16-2 21 2 23 4 15 6 14 9 13 15 15 15 10 14 6 14 4 15 2h22l22-3 21-6 19-8 13-7 1-2-2-7v-42l3-13 4-6 5-3 5-2v-4h-95l1 5 16 5 6 5 3 7 1 6v37l-4 13-8 9-8 4-4 1h-15l-10-3-10-6-9-10-7-14-5-16-3-19-1-25 1-17 3-17 5-16 8-16 6-8 9-8 11-5 5-1h17l13 4 11 7 8 9 8 14 5 15 4 17 4 1 8-25 9-30-2-4-16-7-20-6-22-4-12-1z" fill="#DEDEDE"/>
<path transform="translate(425,1118)" d="m0 0 8 1 6 4 5 8 2 9 1 11v114l-2 20-3 12-6 10-8 7-5 2h-5l3-3 6-4 5-8 3-10 1-7v-147l-3-10-5-6z" fill="#FEFEFE"/>
<path transform="translate(554,835)" d="m0 0h123l21 3 13 5 11 7 8 9 5 12 1 14-2 11-6 11-9 8-14 7-14 4-7 1-1 1 13 5 9 6 8 8 8 14 13 32 8 15 4 5 8 5 6 3 1 5-1 1h-69l-3-4-14-45-6-15-9-17-5-6-9-6-6-2-19-1 1 56 2 16 4 10 5 4 8 2 1 7-1 1h-91l-1-1v-6l9-4 5-6 4-11 2-15v-120l-3-12-3-5-9-5-1-5zm0 2 1 5 8 4 4 7 2 7 1 13v99l-1 18-3 15-5 10-6 4-6 2v4h90v-4l-9-3-6-7-3-11-2-20v-49l1-1h15l9 2 10 6 8 10 8 16 6 15 14 45 1 1h68l-1-4-10-5-5-4-8-13-10-24-8-19-7-10-8-8-12-6-17-5 20-3 16-5 10-6 7-6 6-10 2-7v-17l-4-11-7-9-9-7-14-6-16-3z" fill="#DEDEDE"/>
<path transform="translate(1260,1110)" d="m0 0h191l3 3 15 55-1 5h-7l-5-5-8-10-14-14-12-9-12-6-8-2-9 1-4 1-2 5-2 9v123l2 26 3 12 5 8 7 3 7 2v6l-2 1h-104l-2-1v-7l10-3 7-6 5-12 3-16v-143l-3-6-7-3-11 1-16 8-10 8-12 11-9 10-6 8h-7l-1-1 1-9 13-50zm0 2-15 57v2h7l7-9 9-10 8-8 13-10 14-7 4-1h12l6 4 3 9v136l-3 19-5 13-4 5-5 3-9 3 1 4h104v-4l-10-3-5-4-5-12-3-21v-139l3-9 4-3 3-1h11l11 4 14 9 12 11 10 10 8 11h7l-1-8-13-48-2-3z" fill="#DEDEDE"/>
<path transform="translate(1522,1110)" d="m0 0h103l2 2-1 5-10 4-5 5-1 9 5 12 10 15 12 17 11 16 7 10v2h2l2-5 15-24 10-17 8-17 1-4v-9l-2-6-4-2-12-4-1-1v-7l2-1h79l2 1v8l-15 8-12 9-10 9-9 11-10 14-10 16-26 39-1 2v43l2 19 3 12 6 10 5 3 7 2v7l-2 1h-99l-2-2v-5l2-2 8-2 5-4 5-12 2-14v-53l-17-26-16-25-14-21-10-14-11-13-9-8-9-5v-7zm0 2-1 5 12 7 10 10 13 17 16 24 13 20 14 22 9 14v43l-2 21-4 12-5 6-11 4v5h99l1-4-12-6-6-10-4-15-1-8v-54l10-15 29-44 10-14 12-13 12-10 14-8 6-3v-6h-80l-1 5 13 5 5 5 2 10-3 11-8 16-8 14-12 19-7 11h-2l-15-22-16-23-10-15-5-11v-11l4-5 12-5v-4z" fill="#DEDEDE"/>
<path transform="translate(908,835)" d="m0 0h173l3 5 13 47-1 5h-6l-5-5-11-13-12-11-14-9-8-3h-12l-4 3-2 6v129l3 18 4 8 4 3 9 2 1 6-1 1h-95l-2-2 1-5 11-4 4-5 4-9 3-16v-127l-3-6-3-2h-12l-9 4-11 7-12 11-9 9-8 10h-6l-1-1 1-9 12-46zm1 2-3 9-11 43 1 1h5l8-10 10-11 11-9 11-7 11-4h8l5 2 3 3 2 9v116l-2 17-4 13-4 6-5 4-8 2v4h94v-3l-11-4-4-5-4-13-2-18v-120l3-9 4-3 3-1h8l11 4 11 7 11 9 8 8 10 13h6l-1-8-12-44-1-1z" fill="#DEDEDE"/>
<path transform="translate(777,1169)" d="m0 0 3 3 18 40 5 12-1 4h-50l-1-4 13-28 12-26z" fill="#FEFEFE"/>
<path transform="translate(993,1118)" d="m0 0 7 1 7 5 5 8 3 14v122l-2 14-5 15-5 9-4 5-8 5h-2l2-4 6-8 6-18 2-13v-133l-3-12-6-7z" fill="#FEFEFE"/>
<path transform="translate(797,1105)" d="m0 0h5l6 9 11 23 71 142 10 18 9 11 8 5 4 2v8l-1 1h-100l-2-1v-7l12-6 2-4v-12l-6-17-14-29-3-6v-2l-63 1-12 26-5 15-1 5v9l3 8 5 5 10 5 5 2v7l-2 1h-74l-2-2v-5l12-7 10-10 10-13 11-19 23-47 19-39 23-47 13-27zm1 1-5 8-15 30-11 23-23 47-25 51-9 17-10 14-9 10-9 8-7 4v4h74l1-5-14-6-5-4-4-8v-15l7-21 11-24h64l16 32 8 21 1 5v8l-3 6-4 3-8 3 1 5h99l1-1v-5l-9-5-6-5-9-13-12-22-82-164z" fill="#DEDEDE"/>
<path transform="translate(980,1110)" d="m0 0h92l2 2v5l-5 3-8 5-5 10-1 5v142l3 13 5 8 6 4 8 2h13l14-3 16-7 14-9 11-9 19-19 11-14 3-3 6 2 1 1-1 9-19 65-2 2h-190l-2-1v-6l10-4 6-7 5-12 3-15 1-10v-125l-2-12-3-6-6-5-6-3-1-1v-5zm0 2v5l9 5 5 6 3 11v137l-4 20-7 14-6 5-8 3 1 4h190l3-8 16-56 2-9-3-2-4 1-13 16-13 14-8 7-13 10-14 8-13 5-9 2h-20l-10-4-5-6-4-10-2-12v-135l3-13 4-6 5-4 7-3v-5z" fill="#DEDEDE"/>
<path transform="translate(1536,1119)" d="m0 0 6 2 9 6 14 14 13 17 17 25 19 28 11 16v54l-3 16-4 9-5 6-6 3-3-1 6-7 4-11 2-17v-50l-29-43-10-16-17-25-9-11-11-11z" fill="#FEFEFE"/>
<path transform="translate(1330,1126)" d="m0 0 5 1 6 4 4 7 1 4v128l-2 15-4 13-6 10-7 6-5 2-3-1 5-4 7-12 4-14 2-18v-124l-2-9z" fill="#FEFEFE"/>
<path transform="translate(1221,830)" d="m0 0 5 1 4 5 11 23 68 136 8 12 5 6 11 6v7l-1 1h-91l-1-1v-6l10-5 3-6-1-10-8-20-13-26-56-1-2 6-9 20-5 17v7l3 8 6 5 12 5v6l-1 1h-68l-2-2 1-5 8-4 9-8 11-14 10-17 20-41 17-35 25-51 8-16zm2 1-4 4-12 24-11 23-11 22-11 23-25 51-9 16-8 10-9 10-12 8v3h68l-1-4-14-7-4-5-2-5v-12l7-21 9-19v-2l58 1 13 26 8 20 1 4v10l-2 5-9 4-2 1v4h90l1-4-9-6-5-4-10-15-14-27-54-108-11-23-4-6z" fill="#DEDEDE"/>
<path transform="translate(108,1443)" d="m0 0 4 2 11 13 24 24 2 1-1 4-10 5-4 1h-15l-10-5-6-7-4-11v-12l4-10z" fill="#056838"/>
<path transform="translate(785,1152)" d="m0 0h2l18 38 14 30 16 34 8 18 6 15 2 7v13l-3 6-6 3-10 1v-2l8-5 2-5v-8l-4-15-10-23-13-27-13-28-19-40-1-7z" fill="#FEFEFE"/>
<path transform="translate(1597,842)" d="m0 0 7 1 5 3 5 8 2 9v122l-3 15-6 12-7 6-4 2h-5l5-4 6-7 4-13 1-8v-126l-3-12-4-5z" fill="#FEFEFE"/>
<path transform="translate(353,842)" d="m0 0 7 1 8 7 3 8 1 6v119l-3 17-6 12-7 6-5 2-4-1 8-6 6-12 2-16v-121l-2-11-3-6z" fill="#FEFEFE"/>
<path transform="translate(1203,888)" d="m0 0 3 3 13 29 8 18-1 3h-46l-1-3 19-40z" fill="#FEFEFE"/>
<path transform="translate(804,842)" d="m0 0 6 1 7 6 4 8 1 5v115l-2 19-3 10-6 9-7 4v-3l4-5 3-8 2-15v-132l-3-10-5-2z" fill="#DEDEDE"/>
<path transform="translate(972,849)" d="m0 0 7 3 5 5 2 6v118l-3 17-7 14-8 7-5 1 1-3h2l7-14 3-10 1-7v-127l-5-8z" fill="#DEDEDE"/>
<path transform="translate(566,842)" d="m0 0 5 1 6 4 6 10 2 7v121l-4 18-5 9-7 6-3 1 2-4 4-6 4-16 1-10v-118l-3-13-4-6z" fill="#FEFEFE"/>
<path transform="translate(1210,873)" d="m0 0h2l16 33 13 28 16 34 10 24 3 10v9l-3 6-5 3-9 1v-2l6-3 2-4v-11l-5-16-11-24-18-38-16-34-4-9 2-6z" fill="#FEFEFE"/>
<path transform="translate(548,645)" d="m0 0 2 1-10 8-19 14-16 12-38 28-20 15-38 28-11 8h-331v-4l8-6 2 1-8 6h330l18-14 14-10 20-15 38-28 21-16 14-10 21-16z" fill="#DEDEDE"/>
<path transform="translate(1440,833)" d="m0 0h12l-2 2-21 6-15 6-16 10-12 11-8 10-9 17-4 14-2 17v12l2 16 5 16 6 12 10 13 11 10 13 8 12 6 18 6 11 3v2l-16-1-17-4-16-7-13-9-10-9-10-13-8-16-4-13-2-11v-30l3-15 5-14 7-13 8-10 11-11 10-7 16-8 13-4zm-10 3-16 5-14 7-13 10-10 10-10 15-6 14-4 16-1 8v22l3 17 5 15 8 14 11 13 11 9 13 8 16 6 9 2h6l-3-2-17-6-16-9-13-10-7-7-10-15-5-12-4-15-1-6v-26l3-16 6-16 7-12 11-12 9-8 15-9 14-6 9-3v-1z" fill="#DEDEDE"/>
<path transform="translate(64,1066)" d="m0 0 9 2 10 9 6 12 3 13v159l-3 20-4 12-5 9-6 7-7 4-3-1 7-8 5-11 4-20 1-12v-161l-3-16-5-10-9-7zm9 5 6 12 3 12v174l-3 19-6 18 6-5 6-12 4-16 1-8v-167l-4-13-6-9-5-5z" fill="#DEDEDE"/>
<path transform="translate(425,1118)" d="m0 0 8 1 6 4 5 8 2 9 1 11v114l-2 20-3 12-6 10-8 7-5 2h-5l3-3 6-4 5-8 3-10 1-7v-147l-3-10-5-6zm6 3 5 9 2 11v137l-2 16-5 12-2 4 4-2 6-9 4-11 2-14v-131l-3-13-7-8z" fill="#DEDEDE"/>
<path transform="translate(993,1118)" d="m0 0 7 1 7 5 5 8 3 14v122l-2 14-5 15-5 9-4 5-8 5h-2l2-4 6-8 6-18 2-13v-133l-3-12-6-7zm8 4 2 5 3 9 1 8v125l-3 19-7 21 5-4 7-14 3-11 1-7v-131l-3-10-5-8z" fill="#DEDEDE"/>
<path transform="translate(66,795)" d="m0 0 9 1 8 4 4 7 3 17v144l-3 19-4 12-6 10-7 6-7 3-3-1 8-7 6-12 4-15 2-17v-141l-2-15-4-8-8-6zm7 3 5 7 3 13v156l-4 20-5 13-4 6 5-2 8-11 5-15 2-13v-152l-3-14-6-7z" fill="#DEDEDE"/>
<path transform="translate(1536,1119)" d="m0 0 6 2 9 6 14 14 13 17 17 25 19 28 11 16v54l-3 16-4 9-5 6-6 3-3-1 6-7 4-11 2-17v-50l-29-43-10-16-17-25-9-11-11-11zm14 10 2 4 7 8 50 75 9 14v42l-2 22-4 13 1 2 5-6 4-12 2-16v-47l-12-17-12-18-19-28-10-14-9-11-11-11z" fill="#DEDEDE"/>
<path transform="translate(977,853)" d="m0 0 3 1 4 7v124l-3 14-6 12-4 4-2-1 6-12 3-12 1-8v-121z" fill="#FEFEFE"/>
<path transform="translate(813,848)" d="m0 0 4 4 3 7v126l-3 17-4 8-2 1 2-11 2-18v-122z" fill="#FEFEFE"/>
<path transform="translate(1567,1432)" d="m0 0h9l5 5 1 9-3 6-8 4-12 2h-9v-8l5-10 6-5z" fill="#056838"/>
<path transform="translate(1330,1126)" d="m0 0 5 1 6 4 4 7 1 4v128l-2 15-4 13-6 10-7 6-5 2-3-1 5-4 7-12 4-14 2-18v-124l-2-9zm4 3 4 10v135l-3 18-5 13-3 4 1 2 7-7 6-13 3-16v-135l-4-8-4-3z" fill="#DEDEDE"/>
<path transform="translate(935,682)" d="m0 0h136l2 3v75l-1 2h-137l-1-2v-77zm2 1-1 1v77h134l1-1v-76l-1-1z" fill="#DEDEDE"/>
<path transform="translate(1597,842)" d="m0 0 7 1 5 3 5 8 2 9v122l-3 15-6 12-7 6-4 2h-5l5-4 6-7 4-13 1-8v-126l-3-12-4-5zm6 3 4 9 2 13v114l-2 18-4 11-2 4 4-2 5-8 4-15 1-12v-109l-2-12-3-6-5-5z" fill="#DEDEDE"/>
<path transform="translate(139,1073)" d="m0 0h30l19 3 14 5 10 7 8 9 5 12 2 12v8l-3 14-6 11-8 8-14 8-14 4-14 2h-29l-1-1v-101zm1 2v99h33l18-4 16-8 9-8 6-10 3-11v-17l-3-12-6-10-7-7-16-8-12-3-7-1z" fill="#DEDEDE"/>
<path transform="translate(785,1152)" d="m0 0h2l18 38 14 30 16 34 8 18 6 15 2 7v13l-3 6-6 3-10 1v-2l8-5 2-5v-8l-4-15-10-23-13-27-13-28-19-40-1-7zm0 3-2 5 13 28 19 40 17 36 8 20 3 10v13l-3 7 5-1 4-5 1-3v-8l-4-14-9-21-18-38-14-30-16-34-2-5z" fill="#DEDEDE"/>
<path transform="translate(497,1427)" d="m0 0 2 1 1 5v22l-2 14v16l4 5h7l5-5 1-2 1-19v-20l2 2v25l-1 14-5 6-5 2-6-1-5-6-1-11 3-23v-22l-14 7-6 2 6 4 1 2v11l-4 27 1 9 4 6 7 3h9l10-4 3 1-1 4h17l-1-5v-34l1-25-1-7h-2l-6 4-10 3-1 1 3 3-6-2-1-3 16-5 6-5h2l2 8v16l-1 19v24l1 9h-20l-1-2 1-2-9 4h-13l-8-5-4-7v-12l4-27v-6l-4-4-5-3 1-2 15-5 6-4z" fill="#DEDEDE"/>
<path transform="translate(1210,873)" d="m0 0h2l16 33 13 28 16 34 10 24 3 10v9l-3 6-5 3-9 1v-2l6-3 2-4v-11l-5-16-11-24-18-38-16-34-4-9 2-6zm0 3-1 5 18 38 17 36 12 26 6 17 1 5v7l-3 8 5-1 3-4v-13l-6-17-13-28-16-34-21-45z" fill="#DEDEDE"/>
<path transform="translate(622,694)" d="m0 0 2 1-5 4-5 37-3 22-1 1h-178v-4l19-14 4-3 2 1-17 13-6 4h175l7-55 3-5z" fill="#DEDEDE"/>
<path transform="translate(745,1425)" d="m0 0 3 1-3 10-1 2-8-1-7-1h-13l-11 4-5 4-5 10-1 4v15l6 12 5 6-4-2-5-6-4-9-1-5 1-13 4-10 6-7 11-5h18l12 1 3-8-21 2h-51l-4 9 13-3h7l-1 4-7 7-4 8-2 8 1 13 4 10 9 10 11 5 4 1h17l10-4 8-7 5-6-1-5 4 2-2 5-7 8-6 5-9 4-5 1h-10l-12-3-9-5-7-7-5-10-2-7v-13l4-11 7-8 3-4-20 5 1-7 3-6 1-1h47z" fill="#DEDEDE"/>
<path transform="translate(353,842)" d="m0 0 7 1 8 7 3 8 1 6v119l-3 17-6 12-7 6-5 2-4-1 8-6 6-12 2-16v-121l-2-11-3-6zm6 3 4 9 1 5v132l-3 15-4 8 4-2 5-8 3-10 2-20v-103l-2-15-3-6-5-5z" fill="#DEDEDE"/>
<path transform="translate(1545,686)" d="m0 0 5 2 13 10 1 58h175 3l-1 3h-178l-1-1-1-59-16-12z" fill="#DEDEDE"/>
<path transform="translate(566,842)" d="m0 0 5 1 6 4 6 10 2 7v121l-4 18-5 9-7 6-3 1 2-4 4-6 4-16 1-10v-118l-3-13-4-6zm8 5 3 10 1 4v128l-3 16-2 7 4-4 4-10 2-10 1-10v-109l-2-10-4-8z" fill="#DEDEDE"/>
<path transform="translate(927,1427)" d="m0 0h16l8 4 6-1 7-3h15l9 4 6 6-1 2-9-8-6-2h-12l-10 4-4 1-7-4-4-1h-12l-9 4-5 1-2-2-15 8-3 1 6 3 1 1v14l-3 43h19l-3-10-1-8 1-26 1-12 6-8 6-3h7l5 3-2 1-5-2-6 1-6 4-2 3-2 18v27l3 10v3h-22l-1-1 1-24 1-13v-20l-9-2 1-3 12-5 10-6h2l1 4 8-5z" fill="#DEDEDE"/>
<path transform="translate(1158,1385)" d="m0 0 5 4 3 5-1 3-6-9-11 12-10 7 8 3 4 6 1 4v37l-4 40-1 5h22l-1-3-1-12v-27l2-29 3-7 9-7 3-1h10l4 2-2 1-10-1-10 5-4 5-2 23-1 26 1 26h-24v-10l3-29 1-15v-26l-2-8-4-4-10-2 5-5 10-7 7-8z" fill="#DEDEDE"/>
<path transform="translate(619,847)" d="m0 0h26l16 4 10 6 7 8 4 11v15l-4 11-7 8-8 5-12 4-5 1h-27l-1-1v-71zm1 1v71h20l16-3 12-6 8-8 4-9v-19l-4-9-7-8-12-6-17-3z" fill="#DEDEDE"/>
<path transform="translate(1458,1427)" d="m0 0h16l8 4 7 7 4 9v12l-4 11-9 16-5 7 11-1 10-2-1 7-3 6h-39l2-4 12-12 6-10 3-9v-19l-3-8v-3l4 6 2 12v8l-3 12-7 12-7 8-6 5h35l3-9-16 4h-5l-1-3 10-15 7-14 2-6v-10l-4-9-7-7-7-3h-13l-10 4-4 1-1-2z" fill="#DEDEDE"/>
<path transform="translate(623,1462)" d="m0 0 4 2 4 5 2 5v13l-4 8-8 6-11 3h-12l-10-2-10-5-9-9-2-5 9-7 4-5h2l7 14 7 6 5 2h10l4-2 1-2v-8l-5-4-12-5-14-6-1-2 6 2 18 7 8 5 3 4v6l-3 5-7 3-9-1-8-4-7-8-3-6v-3l-11 9h-2l4 6 9 8 11 4h20l8-3 6-4 3-5 1-4v-9l-4-9z" fill="#DEDEDE"/>
<path transform="translate(777,1169)" d="m0 0 3 3 18 40 5 12-1 4h-50l-1-4 13-28 12-26zm0 3-19 40-5 11v3h48l-1-5-18-41-4-8z" fill="#DEDEDE"/>
<path transform="translate(994,1439)" d="m0 0 3 3 2 6v9l-3 10-8 15-8 12 15-3 7-1-2 9-2 4h-39v-3l8-7 7-8 7-14 1-5v-15l-1-8 2 2 1 4v19l-4 11-7 11-11 11 35 1 3-10-16 4h-5l-1-4 8-11 8-15 2-6v-14z" fill="#DEDEDE"/>
<path transform="translate(1203,888)" d="m0 0 3 3 13 29 8 18-1 3h-46l-1-3 19-40zm0 3-12 25-10 22v1h44l-5-13-13-29-3-6z" fill="#DEDEDE"/>
<path transform="translate(1221,1421)" d="m0 0 3 3 3 10v8l-3 14-8 18-6 11-5 7 9-1 14-4h3l-1 6-5 10h-50l1-3 9-7h3l-9 8h45l5-12-18 5-7 1-2-1 2-5 7-10 9-19 4-14v-15z" fill="#DEDEDE"/>
<path transform="translate(1459,1434)" d="m0 0h8l5 3h-3l-9-1-6 4 1 8v15l-5 25-4 14-1 1h-21v-3l9-13 5-11 2-8v-13l-2-11 3 4 1 4v18l-4 12-6 11-6 9 18-1 6-23 2-10 1-17-2-11 6-5z" fill="#DEDEDE"/>
<path transform="translate(1666,1425)" d="m0 0h15l11 4 9 7 6 7-6 3-8 1v-2l11-2-7-8-10-6-7-2h-12l-13 4-6 5-3 7v7l4 8 8 6 24 10 3 3-6-2-20-8-9-6-4-5-2-4v-11l4-7 8-6z" fill="#DEDEDE"/>
<path transform="translate(417,1472)" d="m0 0 3 1 5 8v5l-8 9-10 6-6 2-14 1-14-3-10-5 2-1 12 5 5 1h17l11-4 9-7 4-6-2-5-3-4-6 11-7 7-9 4h-11l-7-3 2-1 7 2 11-1 8-5 6-7z" fill="#DEDEDE"/>
<path transform="translate(1595,1438)" d="m0 0 2 2 1 9-2 5 10-2-2 11-1 1-44 2h-9l5 16 8 12-4-2-6-9-4-13v-5l2-1 51-2 2-8-5 2h-5l1-5z" fill="#DEDEDE"/>
<path transform="translate(1197,1419)" d="m0 0 4 2 5 8 3 11v20l-4 12-7 11-8 9-2-1 9-10 6-10 4-13v-14l-3-14-5-8z" fill="#DEDEDE"/>
<path transform="translate(1422,1427)" d="m0 0h15l8 4-2 1-8-3h-12l-10 5-4-1v-2l-14 8-5 2 4 3-10-1v-2l16-7 7-5 3 1 2 2 6-4z" fill="#DEDEDE"/>
<path transform="translate(189,1494)" d="m0 0 9 2 7 2 1 4-5 2h-14l-13-2-5-3 2-1 8 3h24l1-2-11-2z" fill="#DEDEDE"/>
<path transform="translate(1652,1471)" d="m0 0h2l5 11-1 2-5-9-8 6-3 2 1 4v3l-4-5 2-4 8-6z" fill="#DEDEDE"/>
<path transform="translate(80,1299)" d="m0 0v3l-6 7-7 4-2-1 7-6z" fill="#DFDFDF"/>
<path transform="translate(429,1307)" d="m0 0 1 4-4 4-8 1 3-3z" fill="#DFDFDF"/>
<path transform="translate(1618,1303)" d="m0 0v3l-5 6-6 3-2-1 6-5z" fill="#DFDFDF"/>
<path transform="translate(66,795)" d="m0 0h6l4 6v3l-7-6z" fill="#DFDFDF"/>
</svg>
